<svg xmlns="http://www.w3.org/2000/svg" viewBox="0 0 860 512" role="img" aria-label="LegendasPro AI">
  <defs>
    <linearGradient id="bg" x1="52" y1="46" x2="454" y2="466" gradientUnits="userSpaceOnUse">
      <stop stop-color="#07111f"/>
      <stop offset="1" stop-color="#10243f"/>
    </linearGradient>
    <linearGradient id="accent" x1="119" y1="112" x2="384" y2="372" gradientUnits="userSpaceOnUse">
      <stop stop-color="#ffe45c"/>
      <stop offset=".56" stop-color="#34e8ff"/>
      <stop offset="1" stop-color="#7c5cff"/>
    </linearGradient>
    <filter id="glow" x="-40%" y="-40%" width="180%" height="180%">
      <feGaussianBlur stdDeviation="12" result="blur"/>
      <feColorMatrix in="blur" type="matrix" values="0 0 0 0 0.08 0 0 0 0 0.75 0 0 0 0 1 0 0 0 .45 0"/>
      <feMerge>
        <feMergeNode/>
        <feMergeNode in="SourceGraphic"/>
      </feMerge>
    </filter>
  </defs>
  <rect width="860" height="512" rx="112" fill="url(#bg)"/>
  <circle cx="116" cy="104" r="44" fill="#ffe45c" opacity=".18"/>
  <circle cx="412" cy="394" r="76" fill="#34e8ff" opacity=".13"/>
  <g filter="url(#glow)">
    <path d="M130 158c0-34 28-62 62-62h128c34 0 62 28 62 62v88c0 34-28 62-62 62h-38l-55 54c-11 11-30 3-30-13v-41h-5c-34 0-62-28-62-62v-88Z" fill="#0d2137" stroke="url(#accent)" stroke-width="18" stroke-linejoin="round"/>
    <path d="M188 172h135M188 218h100M188 264h150" stroke="#ecfeff" stroke-width="24" stroke-linecap="round"/>
    <path d="M344 111l14 31 31 14-31 14-14 31-14-31-31-14 31-14 14-31Z" fill="#ffe45c"/>
    <path d="M380 278l9 20 20 9-20 9-9 20-9-20-20-9 20-9 9-20Z" fill="#34e8ff"/>
  </g>
  <g font-family="Inter, Arial, sans-serif">
    <text x="456" y="220" fill="#ecfeff" font-size="58" font-weight="800">LegendasPro</text>
    <text x="459" y="276" fill="#97a6ba" font-size="30" font-weight="600">Gerador de legendas</text>
    <rect x="460" y="315" width="250" height="52" rx="26" fill="#ffe45c"/>
    <text x="494" y="351" fill="#101828" font-size="25" font-weight="800">CTA + hashtags</text>
  </g>
</svg>