<svg xmlns="http://www.w3.org/2000/svg" viewBox="0 0 1200 800" role="img" aria-label="Preview LegendasPro">
  <defs>
    <linearGradient id="bg" x1="0" y1="0" x2="1200" y2="800" gradientUnits="userSpaceOnUse">
      <stop stop-color="#07111f"/>
      <stop offset="1" stop-color="#10243f"/>
    </linearGradient>
  </defs>
  <rect width="1200" height="800" fill="url(#bg)"/>
  <circle cx="178" cy="140" r="86" fill="#ffe45c" opacity=".16"/>
  <circle cx="1040" cy="654" r="132" fill="#34e8ff" opacity=".14"/>
  <rect x="180" y="166" width="840" height="468" rx="52" fill="#0d2137" stroke="#24445f" stroke-width="4"/>
  <path d="M298 278c0-42 34-76 76-76h258c42 0 76 34 76 76v142c0 42-34 76-76 76h-76l-82 82c-14 14-38 4-38-16v-66h-62c-42 0-76-34-76-76V278Z" fill="#081827" stroke="#34e8ff" stroke-width="18" stroke-linejoin="round"/>
  <path d="M382 306h228M382 366h164M382 426h254" stroke="#ecfeff" stroke-width="28" stroke-linecap="round"/>
  <path d="M752 234l17 39 39 17-39 17-17 39-17-39-39-17 39-17 17-39Z" fill="#ffe45c"/>
  <rect x="726" y="420" width="210" height="62" rx="31" fill="#ffe45c"/>
  <path d="M770 451h122" stroke="#101828" stroke-width="20" stroke-linecap="round"/>
</svg>